<mxfile host="Electron" modified="2024-12-14T12:05:26.306Z" agent="Mozilla/5.0 (Windows NT 10.0; Win64; x64) AppleWebKit/537.36 (KHTML, like Gecko) draw.io/24.0.4 Chrome/120.0.6099.109 Electron/28.1.0 Safari/537.36" etag="cKAzOOpHEgAuSN7qH26X" version="24.0.4" type="device">
  <diagram id="R2lEEEUBdFMjLlhIrx00" name="Page-1">
    <mxGraphModel dx="2290" dy="877" grid="1" gridSize="10" guides="1" tooltips="1" connect="1" arrows="1" fold="1" page="1" pageScale="1" pageWidth="850" pageHeight="1100" math="0" shadow="0" extFonts="Permanent Marker^https://fonts.googleapis.com/css?family=Permanent+Marker">
      <root>
        <mxCell id="0" />
        <mxCell id="1" parent="0" />
        <mxCell id="gdblvyxFH-_ZPHesD4wi-1" value="Головне меню" style="rounded=0;whiteSpace=wrap;html=1;" parent="1" vertex="1">
          <mxGeometry x="30" y="80" width="120" height="60" as="geometry" />
        </mxCell>
        <mxCell id="gdblvyxFH-_ZPHesD4wi-3" value="" style="endArrow=classic;startArrow=classic;html=1;rounded=0;entryX=0.25;entryY=1;entryDx=0;entryDy=0;" parent="1" target="gdblvyxFH-_ZPHesD4wi-1" edge="1">
          <mxGeometry width="50" height="50" relative="1" as="geometry">
            <mxPoint x="-50" y="210" as="sourcePoint" />
            <mxPoint x="30" y="200" as="targetPoint" />
          </mxGeometry>
        </mxCell>
        <mxCell id="gdblvyxFH-_ZPHesD4wi-4" value="Сцена налаштувань" style="rounded=0;whiteSpace=wrap;html=1;" parent="1" vertex="1">
          <mxGeometry x="-110" y="210" width="120" height="60" as="geometry" />
        </mxCell>
        <mxCell id="gdblvyxFH-_ZPHesD4wi-5" value="Вихід з гри" style="rounded=0;whiteSpace=wrap;html=1;" parent="1" vertex="1">
          <mxGeometry x="280" y="80" width="120" height="60" as="geometry" />
        </mxCell>
        <mxCell id="gdblvyxFH-_ZPHesD4wi-6" value="Кнопка налаштування" style="text;html=1;align=center;verticalAlign=middle;whiteSpace=wrap;rounded=0;" parent="1" vertex="1">
          <mxGeometry x="-50" y="140" width="60" height="30" as="geometry" />
        </mxCell>
        <mxCell id="gdblvyxFH-_ZPHesD4wi-7" value="Кнопка Вихід" style="text;html=1;align=center;verticalAlign=middle;whiteSpace=wrap;rounded=0;" parent="1" vertex="1">
          <mxGeometry x="190" y="80" width="60" height="30" as="geometry" />
        </mxCell>
        <mxCell id="gdblvyxFH-_ZPHesD4wi-8" value="" style="endArrow=classic;html=1;rounded=0;exitX=1.017;exitY=0.4;exitDx=0;exitDy=0;exitPerimeter=0;entryX=0;entryY=0.75;entryDx=0;entryDy=0;" parent="1" source="gdblvyxFH-_ZPHesD4wi-1" target="gdblvyxFH-_ZPHesD4wi-5" edge="1">
          <mxGeometry width="50" height="50" relative="1" as="geometry">
            <mxPoint x="190" y="310" as="sourcePoint" />
            <mxPoint x="240" y="260" as="targetPoint" />
          </mxGeometry>
        </mxCell>
        <mxCell id="gdblvyxFH-_ZPHesD4wi-9" value="Сцена вибору збереження гри" style="rounded=0;whiteSpace=wrap;html=1;" parent="1" vertex="1">
          <mxGeometry x="150" y="210" width="120" height="60" as="geometry" />
        </mxCell>
        <mxCell id="gdblvyxFH-_ZPHesD4wi-10" value="Кнопка Грати" style="text;html=1;align=center;verticalAlign=middle;whiteSpace=wrap;rounded=0;" parent="1" vertex="1">
          <mxGeometry x="170" y="150" width="60" height="30" as="geometry" />
        </mxCell>
        <mxCell id="gdblvyxFH-_ZPHesD4wi-12" value="" style="endArrow=classic;startArrow=classic;html=1;rounded=0;entryX=0.75;entryY=1;entryDx=0;entryDy=0;exitX=0.5;exitY=0;exitDx=0;exitDy=0;" parent="1" source="gdblvyxFH-_ZPHesD4wi-9" target="gdblvyxFH-_ZPHesD4wi-1" edge="1">
          <mxGeometry width="50" height="50" relative="1" as="geometry">
            <mxPoint x="-40" y="220" as="sourcePoint" />
            <mxPoint x="70" y="150" as="targetPoint" />
          </mxGeometry>
        </mxCell>
        <mxCell id="gdblvyxFH-_ZPHesD4wi-13" value="" style="endArrow=classic;html=1;rounded=0;exitX=0.5;exitY=1;exitDx=0;exitDy=0;" parent="1" source="gdblvyxFH-_ZPHesD4wi-9" edge="1">
          <mxGeometry width="50" height="50" relative="1" as="geometry">
            <mxPoint x="200" y="400" as="sourcePoint" />
            <mxPoint x="210" y="320" as="targetPoint" />
          </mxGeometry>
        </mxCell>
        <mxCell id="gdblvyxFH-_ZPHesD4wi-14" value="Сцена вибору умов гри" style="rounded=0;whiteSpace=wrap;html=1;" parent="1" vertex="1">
          <mxGeometry x="150" y="320" width="120" height="60" as="geometry" />
        </mxCell>
        <mxCell id="gdblvyxFH-_ZPHesD4wi-16" value="Ігровий рівень" style="rounded=0;whiteSpace=wrap;html=1;" parent="1" vertex="1">
          <mxGeometry x="430" y="210" width="120" height="60" as="geometry" />
        </mxCell>
        <mxCell id="gdblvyxFH-_ZPHesD4wi-17" value="" style="endArrow=classic;html=1;rounded=0;exitX=1;exitY=0.5;exitDx=0;exitDy=0;entryX=0;entryY=0.5;entryDx=0;entryDy=0;" parent="1" source="gdblvyxFH-_ZPHesD4wi-9" target="gdblvyxFH-_ZPHesD4wi-16" edge="1">
          <mxGeometry width="50" height="50" relative="1" as="geometry">
            <mxPoint x="310" y="370" as="sourcePoint" />
            <mxPoint x="360" y="320" as="targetPoint" />
          </mxGeometry>
        </mxCell>
        <mxCell id="gdblvyxFH-_ZPHesD4wi-18" value="Завантаження збереженної гри" style="text;html=1;align=center;verticalAlign=middle;whiteSpace=wrap;rounded=0;" parent="1" vertex="1">
          <mxGeometry x="350" y="200" width="60" height="30" as="geometry" />
        </mxCell>
        <mxCell id="gdblvyxFH-_ZPHesD4wi-19" value="" style="endArrow=classic;html=1;rounded=0;exitX=1;exitY=0.5;exitDx=0;exitDy=0;entryX=0.25;entryY=1;entryDx=0;entryDy=0;" parent="1" source="gdblvyxFH-_ZPHesD4wi-14" target="gdblvyxFH-_ZPHesD4wi-16" edge="1">
          <mxGeometry width="50" height="50" relative="1" as="geometry">
            <mxPoint x="340" y="380" as="sourcePoint" />
            <mxPoint x="390" y="330" as="targetPoint" />
          </mxGeometry>
        </mxCell>
        <mxCell id="gdblvyxFH-_ZPHesD4wi-20" value="Екран паузи" style="rounded=0;whiteSpace=wrap;html=1;" parent="1" vertex="1">
          <mxGeometry x="640" y="110" width="120" height="60" as="geometry" />
        </mxCell>
        <mxCell id="gdblvyxFH-_ZPHesD4wi-21" value="Екран GameOver" style="rounded=0;whiteSpace=wrap;html=1;" parent="1" vertex="1">
          <mxGeometry x="670" y="200" width="120" height="60" as="geometry" />
        </mxCell>
        <mxCell id="gdblvyxFH-_ZPHesD4wi-22" value="" style="endArrow=classic;startArrow=classic;html=1;rounded=0;exitX=1.017;exitY=0.4;exitDx=0;exitDy=0;exitPerimeter=0;entryX=0;entryY=0.5;entryDx=0;entryDy=0;" parent="1" source="gdblvyxFH-_ZPHesD4wi-16" target="gdblvyxFH-_ZPHesD4wi-20" edge="1">
          <mxGeometry width="50" height="50" relative="1" as="geometry">
            <mxPoint x="570" y="240" as="sourcePoint" />
            <mxPoint x="620" y="190" as="targetPoint" />
          </mxGeometry>
        </mxCell>
        <mxCell id="gdblvyxFH-_ZPHesD4wi-23" value="Кнопка паузи" style="text;html=1;align=center;verticalAlign=middle;whiteSpace=wrap;rounded=0;" parent="1" vertex="1">
          <mxGeometry x="550" y="150" width="60" height="30" as="geometry" />
        </mxCell>
        <mxCell id="gdblvyxFH-_ZPHesD4wi-24" value="" style="endArrow=classic;html=1;rounded=0;exitX=0.477;exitY=0;exitDx=0;exitDy=0;entryX=1;entryY=0.5;entryDx=0;entryDy=0;exitPerimeter=0;" parent="1" source="gdblvyxFH-_ZPHesD4wi-20" edge="1">
          <mxGeometry width="50" height="50" relative="1" as="geometry">
            <mxPoint x="700" y="94.8" as="sourcePoint" />
            <mxPoint x="400" y="94.8" as="targetPoint" />
            <Array as="points">
              <mxPoint x="697" y="95" />
              <mxPoint x="560" y="95" />
            </Array>
          </mxGeometry>
        </mxCell>
        <mxCell id="gdblvyxFH-_ZPHesD4wi-25" value="Кнопка Вихід" style="text;html=1;align=center;verticalAlign=middle;whiteSpace=wrap;rounded=0;" parent="1" vertex="1">
          <mxGeometry x="500" y="100" width="60" height="30" as="geometry" />
        </mxCell>
        <mxCell id="gdblvyxFH-_ZPHesD4wi-26" value="" style="endArrow=classic;html=1;rounded=0;exitX=1;exitY=0.5;exitDx=0;exitDy=0;entryX=0.75;entryY=0;entryDx=0;entryDy=0;" parent="1" source="gdblvyxFH-_ZPHesD4wi-21" target="gdblvyxFH-_ZPHesD4wi-5" edge="1">
          <mxGeometry width="50" height="50" relative="1" as="geometry">
            <mxPoint x="860" y="260" as="sourcePoint" />
            <mxPoint x="910" y="210" as="targetPoint" />
            <Array as="points">
              <mxPoint x="810" y="230" />
              <mxPoint x="810" y="60" />
              <mxPoint x="370" y="60" />
            </Array>
          </mxGeometry>
        </mxCell>
        <mxCell id="gdblvyxFH-_ZPHesD4wi-27" value="Кнопка Вихід" style="text;html=1;align=center;verticalAlign=middle;whiteSpace=wrap;rounded=0;" parent="1" vertex="1">
          <mxGeometry x="510" y="20" width="60" height="30" as="geometry" />
        </mxCell>
        <mxCell id="gdblvyxFH-_ZPHesD4wi-28" value="" style="endArrow=classic;html=1;rounded=0;exitX=1;exitY=0.5;exitDx=0;exitDy=0;entryX=-0.005;entryY=0.667;entryDx=0;entryDy=0;entryPerimeter=0;" parent="1" source="gdblvyxFH-_ZPHesD4wi-16" target="gdblvyxFH-_ZPHesD4wi-21" edge="1">
          <mxGeometry width="50" height="50" relative="1" as="geometry">
            <mxPoint x="590" y="350" as="sourcePoint" />
            <mxPoint x="640" y="300" as="targetPoint" />
          </mxGeometry>
        </mxCell>
        <mxCell id="gdblvyxFH-_ZPHesD4wi-29" value="Повна втрата здоров`я" style="text;html=1;align=center;verticalAlign=middle;whiteSpace=wrap;rounded=0;" parent="1" vertex="1">
          <mxGeometry x="590" y="200" width="60" height="30" as="geometry" />
        </mxCell>
        <mxCell id="gdblvyxFH-_ZPHesD4wi-30" value="" style="endArrow=classic;html=1;rounded=0;exitX=0.5;exitY=1;exitDx=0;exitDy=0;entryX=0.75;entryY=1;entryDx=0;entryDy=0;" parent="1" source="gdblvyxFH-_ZPHesD4wi-21" target="gdblvyxFH-_ZPHesD4wi-16" edge="1">
          <mxGeometry width="50" height="50" relative="1" as="geometry">
            <mxPoint x="690" y="340" as="sourcePoint" />
            <mxPoint x="740" y="290" as="targetPoint" />
            <Array as="points">
              <mxPoint x="730" y="290" />
              <mxPoint x="530" y="290" />
              <mxPoint x="520" y="290" />
            </Array>
          </mxGeometry>
        </mxCell>
        <mxCell id="gdblvyxFH-_ZPHesD4wi-31" value="Кнопка рестарт" style="text;html=1;align=center;verticalAlign=middle;whiteSpace=wrap;rounded=0;" parent="1" vertex="1">
          <mxGeometry x="590" y="260" width="60" height="30" as="geometry" />
        </mxCell>
        <mxCell id="gdblvyxFH-_ZPHesD4wi-32" value="" style="endArrow=classic;html=1;rounded=0;exitX=0;exitY=0.25;exitDx=0;exitDy=0;entryX=0.75;entryY=0;entryDx=0;entryDy=0;" parent="1" source="gdblvyxFH-_ZPHesD4wi-20" target="gdblvyxFH-_ZPHesD4wi-9" edge="1">
          <mxGeometry width="50" height="50" relative="1" as="geometry">
            <mxPoint x="420" y="410" as="sourcePoint" />
            <mxPoint x="470" y="360" as="targetPoint" />
          </mxGeometry>
        </mxCell>
        <mxCell id="gdblvyxFH-_ZPHesD4wi-33" value="Кнопка Зберегти гру" style="text;html=1;align=center;verticalAlign=middle;whiteSpace=wrap;rounded=0;" parent="1" vertex="1">
          <mxGeometry x="260" y="160" width="110" height="30" as="geometry" />
        </mxCell>
        <mxCell id="gdblvyxFH-_ZPHesD4wi-34" value="Кнопка підтвердження" style="text;html=1;align=center;verticalAlign=middle;whiteSpace=wrap;rounded=0;" parent="1" vertex="1">
          <mxGeometry x="310" y="270" width="60" height="30" as="geometry" />
        </mxCell>
        <mxCell id="gdblvyxFH-_ZPHesD4wi-35" value="Запуск нової гри" style="text;html=1;align=center;verticalAlign=middle;whiteSpace=wrap;rounded=0;" parent="1" vertex="1">
          <mxGeometry x="210" y="270" width="60" height="30" as="geometry" />
        </mxCell>
        <mxCell id="LRi_4gYQiehudn3cWJ6N-1" value="Ворог" style="rounded=0;whiteSpace=wrap;html=1;" parent="1" vertex="1">
          <mxGeometry x="500" y="360" width="120" height="60" as="geometry" />
        </mxCell>
        <mxCell id="LRi_4gYQiehudn3cWJ6N-2" value="Гравець" style="rounded=0;whiteSpace=wrap;html=1;" parent="1" vertex="1">
          <mxGeometry x="220" y="410" width="120" height="60" as="geometry" />
        </mxCell>
        <mxCell id="LRi_4gYQiehudn3cWJ6N-3" value="Зброя" style="rounded=0;whiteSpace=wrap;html=1;" parent="1" vertex="1">
          <mxGeometry x="370" y="370" width="120" height="60" as="geometry" />
        </mxCell>
        <mxCell id="LRi_4gYQiehudn3cWJ6N-4" value="" style="endArrow=classic;html=1;rounded=0;exitX=0.553;exitY=1.006;exitDx=0;exitDy=0;entryX=0.5;entryY=0;entryDx=0;entryDy=0;exitPerimeter=0;" parent="1" source="gdblvyxFH-_ZPHesD4wi-16" target="LRi_4gYQiehudn3cWJ6N-3" edge="1">
          <mxGeometry width="50" height="50" relative="1" as="geometry">
            <mxPoint x="580" y="540" as="sourcePoint" />
            <mxPoint x="630" y="490" as="targetPoint" />
          </mxGeometry>
        </mxCell>
        <mxCell id="LRi_4gYQiehudn3cWJ6N-5" value="" style="endArrow=classic;html=1;rounded=0;exitX=0.5;exitY=1;exitDx=0;exitDy=0;entryX=0.558;entryY=0.05;entryDx=0;entryDy=0;entryPerimeter=0;" parent="1" source="gdblvyxFH-_ZPHesD4wi-16" target="LRi_4gYQiehudn3cWJ6N-2" edge="1">
          <mxGeometry width="50" height="50" relative="1" as="geometry">
            <mxPoint x="490" y="560" as="sourcePoint" />
            <mxPoint x="540" y="510" as="targetPoint" />
          </mxGeometry>
        </mxCell>
        <mxCell id="LRi_4gYQiehudn3cWJ6N-6" value="" style="endArrow=classic;html=1;rounded=0;entryX=0.5;entryY=0;entryDx=0;entryDy=0;exitX=0.576;exitY=1.003;exitDx=0;exitDy=0;exitPerimeter=0;" parent="1" target="LRi_4gYQiehudn3cWJ6N-1" edge="1" source="gdblvyxFH-_ZPHesD4wi-16">
          <mxGeometry width="50" height="50" relative="1" as="geometry">
            <mxPoint x="500" y="270" as="sourcePoint" />
            <mxPoint x="600" y="460" as="targetPoint" />
          </mxGeometry>
        </mxCell>
        <mxCell id="tz7IYaLRN5P_mvB_fPIh-1" value="Патрон" style="rounded=0;whiteSpace=wrap;html=1;" vertex="1" parent="1">
          <mxGeometry x="460" y="450" width="120" height="60" as="geometry" />
        </mxCell>
        <mxCell id="tz7IYaLRN5P_mvB_fPIh-2" value="" style="endArrow=classic;html=1;rounded=0;exitX=0.5;exitY=1;exitDx=0;exitDy=0;entryX=0;entryY=0.5;entryDx=0;entryDy=0;" edge="1" parent="1" source="LRi_4gYQiehudn3cWJ6N-3" target="tz7IYaLRN5P_mvB_fPIh-1">
          <mxGeometry width="50" height="50" relative="1" as="geometry">
            <mxPoint x="400" y="620" as="sourcePoint" />
            <mxPoint x="420" y="550" as="targetPoint" />
          </mxGeometry>
        </mxCell>
      </root>
    </mxGraphModel>
  </diagram>
</mxfile>
